<svg xmlns="http://www.w3.org/2000/svg" width="474" height="508"><path fill-rule="evenodd" clip-rule="evenodd" d="M1 501v-27c.453-1.9.992-3.786 1.346-5.705 1.78-9.65 2.784-19.511 5.376-28.936 21.819-79.323 71.232-133.904 147.89-163.767 6.097-2.376 12.373-4.292 17.61-6.094-10.186-9.684-21.192-18.678-30.424-29.227-19.996-22.849-32.091-49.742-35.741-79.939-3.917-32.392 3.694-62.556 20.258-90.437 17.853-30.05 42.33-52.438 76.019-63.615C209.765 4.147 216.438 2.742 223 1h30c5.127 1.311 10.286 2.507 15.375 3.951 24.22 6.874 44.429 20.211 61.117 38.837 23.628 26.371 38.62 57.049 39.969 92.614 2.053 54.11-20.687 96.862-63.699 129.19-1.359 1.021-2.717 2.045-4.69 3.531 4.285 1.386 7.6 2.364 10.85 3.521 85.565 30.438 138.89 89.631 158.935 178.412 1.71 7.574 2.778 15.292 4.145 22.943v27l-8 8h-458C6.333 506.333 3.667 503.667 1 501zm236.493-18.771l201.963-.001c1.333 0 2.673-.089 3.998.012 2.888.221 3.894-1.064 3.523-3.87-.828-6.271-1.196-12.623-2.368-18.826-8.692-46.026-29.712-85.581-64.974-116.445-62.044-54.307-133.698-70.287-211.231-42.623-81.41 29.048-127.978 88.991-139.088 175.401-.812 6.313-.618 6.35 5.714 6.351l202.463.001zm1.761-221.159c3.105-.287 7.469-.382 11.704-1.166 4.727-.876 9.451-2.057 13.981-3.659 45.356-16.048 77.948-61.775 77.685-110.638-.247-45.569-20.569-80.63-59.26-104.469-21.802-13.434-45.487-17.636-70.396-9.231-46.588 15.72-79.707 61.756-79.667 111.262.03 38.086 15.118 69.464 44.19 93.92 17.419 14.652 37.359 23.525 61.763 23.981z"/><path fill-rule="evenodd" clip-rule="evenodd" fill="#FFF" d="M1 501l8 8H1v-8zm466 8l8-8v8h-8z"/></svg>